<?xml version="1.0" encoding="UTF-8" standalone="no"?>
<svg
   xmlns:dc="http://purl.org/dc/elements/1.1/"
   xmlns:cc="http://creativecommons.org/ns#"
   xmlns:rdf="http://www.w3.org/1999/02/22-rdf-syntax-ns#"
   xmlns:svg="http://www.w3.org/2000/svg"
   xmlns="http://www.w3.org/2000/svg"
   xmlns:sodipodi="http://sodipodi.sourceforge.net/DTD/sodipodi-0.dtd"
   xmlns:inkscape="http://www.inkscape.org/namespaces/inkscape"
   inkscape:version="1.0 (4035a4fb49, 2020-05-01)"
   sodipodi:docname="share1.svg"
   id="svg1439"
   version="1.1"
   fill="none"
   viewBox="0 0 24 24"
   height="24"
   width="24">
  <metadata
     id="metadata1445">
    <rdf:RDF>
      <cc:Work
         rdf:about="">
        <dc:format>image/svg+xml</dc:format>
        <dc:type
           rdf:resource="http://purl.org/dc/dcmitype/StillImage" />
      </cc:Work>
    </rdf:RDF>
  </metadata>
  <defs
     id="defs1443" />
  <sodipodi:namedview
     inkscape:current-layer="svg1439"
     inkscape:window-maximized="0"
     inkscape:window-y="0"
     inkscape:window-x="-9"
     inkscape:cy="12"
     inkscape:cx="12"
     inkscape:zoom="34.583333"
     showgrid="false"
     id="namedview1441"
     inkscape:window-height="1712"
     inkscape:window-width="1706"
     inkscape:pageshadow="2"
     inkscape:pageopacity="0"
     guidetolerance="10"
     gridtolerance="10"
     objecttolerance="10"
     borderopacity="1"
     bordercolor="#666666"
     pagecolor="#ffffff" />
  <path
     id="path1437"
     stroke-width="1.5"
     stroke="#001A72"
     d="M15.3156 16.6578L8.6938 13.3469M8.68439 10.6578L15.3125 7.34377M21 18C21 19.6569 19.6569 21 18 21C16.3431 21 15 19.6569 15 18C15 16.3431 16.3431 15 18 15C19.6569 15 21 16.3431 21 18ZM21 6C21 7.65685 19.6569 9 18 9C16.3431 9 15 7.65685 15 6C15 4.34315 16.3431 3 18 3C19.6569 3 21 4.34315 21 6ZM9 12C9 13.6569 7.65685 15 6 15C4.34315 15 3 13.6569 3 12C3 10.3431 4.34315 9 6 9C7.65685 9 9 10.3431 9 12Z" />
  <ellipse
     ry="2.6602411"
     rx="2.6168673"
     cy="5.9566259"
     cx="18"
     id="path2018"
     style="fill:#001a72;stroke-width:0.990441;fill-opacity:1" />
  <ellipse
     ry="2.4722891"
     rx="2.4144578"
     cy="12.043374"
     cx="6.0289154"
     id="path2022"
     style="fill:#001a72;fill-opacity:1" />
  <ellipse
     ry="2.9060242"
     rx="2.819277"
     cy="18.20241"
     cx="18.057831"
     id="path2024"
     style="fill:#001a72;stroke-width:1.07479;fill-opacity:1" />
</svg>
